<svg id="Layer_1" data-name="Layer 1" xmlns="http://www.w3.org/2000/svg" xmlns:xlink="http://www.w3.org/1999/xlink" viewBox="0 0 300 200"><defs><style>.cls-1,.cls-35,.cls-44{fill:none;}.cls-2{fill:#6b6b6b;}.cls-3{fill:#c4c4c4;}.cls-22,.cls-25,.cls-4,.cls-45,.cls-48,.cls-51{fill:#fff;}.cls-4{opacity:0.75;}.cls-18,.cls-5{opacity:0.1;}.cls-6,.cls-7{fill:#424142;}.cls-25,.cls-6{opacity:0.25;}.cls-13,.cls-7{opacity:0.15;}.cls-8{fill:#2aace2;}.cls-9{fill:#efefef;}.cls-10,.cls-38,.cls-49,.cls-51{font-size:5.02px;}.cls-10{fill:#8e9091;letter-spacing:0.4em;}.cls-10,.cls-38,.cls-48,.cls-49,.cls-51{font-family:HelveticaNeue-Medium, Helvetica Neue;font-weight:500;}.cls-11{fill:#393332;}.cls-12{fill:#e2b89c;}.cls-13,.cls-17,.cls-18,.cls-19,.cls-24,.cls-26,.cls-28{fill:#231f20;}.cls-14{fill:#efc9ac;}.cls-15{fill:#e0b594;}.cls-16{fill:#f2c8b1;}.cls-17{opacity:0.05;}.cls-19{opacity:0.11;}.cls-20{clip-path:url(#clip-path);}.cls-21{fill:#e0c1aa;}.cls-23{fill:#5f3917;}.cls-26,.cls-33,.cls-45{opacity:0.2;}.cls-27{clip-path:url(#clip-path-2);}.cls-28{opacity:0.07;}.cls-29{fill:#5f3a16;}.cls-30{fill:#593518;}.cls-31{fill:#4b2e15;}.cls-32{fill:#c6eafa;}.cls-34{fill:#494342;}.cls-35{stroke:#d4d3d7;stroke-miterlimit:10;}.cls-35,.cls-44{stroke-linecap:round;}.cls-36{fill:#d4d3d7;}.cls-37,.cls-38{fill:#fbb040;}.cls-38,.cls-49{letter-spacing:0.2em;}.cls-39{letter-spacing:0.22em;}.cls-40,.cls-51{letter-spacing:0.2em;}.cls-41{fill:#f1f2f2;}.cls-42{fill:#b3b3b3;}.cls-43{fill:#f09242;}.cls-44{stroke:#fff;stroke-linejoin:round;stroke-width:0.95px;}.cls-46{fill:#f0c362;}.cls-47,.cls-49{fill:#f15a29;}.cls-48{font-size:5px;letter-spacing:0.2em;}.cls-50{letter-spacing:0.11em;}</style><clipPath id="clip-path"><path class="cls-1" d="M53.77,42.79l-1.08-.72a.07.07,0,0,0-.06,0l-1.52,0-.67.48a1.89,1.89,0,0,0,.89.63,5.48,5.48,0,0,0,1.41,0C52.81,43.23,53.77,42.79,53.77,42.79Z"/></clipPath><clipPath id="clip-path-2"><path class="cls-1" d="M57.77,42.79l1.08-.72a.07.07,0,0,1,.06,0l1.52,0,.67.48a1.89,1.89,0,0,1-.89.63,5.48,5.48,0,0,1-1.41,0C58.73,43.23,57.77,42.79,57.77,42.79Z"/></clipPath></defs><title>Wrapped Tokens v1</title><rect class="cls-2" x="223.57" y="38.12" width="37.61" height="27.19"/><rect class="cls-3" x="213.71" y="65.31" width="57.36" height="5.09"/><rect class="cls-4" x="213.71" y="65.31" width="57.36" height="1.3"/><rect class="cls-3" x="209.65" y="70.39" width="65.47" height="5.09"/><rect class="cls-4" x="209.65" y="70.39" width="65.47" height="1.3"/><rect class="cls-3" x="213.71" y="32.99" width="57.36" height="5.09"/><polygon class="cls-3" points="275.12 32.94 209.65 32.94 209.65 27.86 242.39 15.48 275.12 27.86 275.12 32.94"/><polygon class="cls-3" points="209.65 30.97 209.65 32.94 275.12 32.94 275.12 30.97 242.39 18.59 209.65 30.97"/><rect class="cls-3" x="261.16" y="38.12" width="7.43" height="27.19"/><rect class="cls-5" x="264.88" y="38.12" width="3.71" height="27.19"/><polygon class="cls-6" points="261.18 38.12 261.18 47.37 268.57 41.65 268.57 38.12 261.18 38.12"/><rect class="cls-3" x="246.17" y="38.12" width="7.43" height="27.19"/><rect class="cls-5" x="249.88" y="38.12" width="3.71" height="27.19"/><polygon class="cls-6" points="246.19 38.12 246.19 47.37 253.58 41.65 253.58 38.12 246.19 38.12"/><rect class="cls-3" x="231.18" y="38.12" width="7.43" height="27.19"/><rect class="cls-5" x="234.89" y="38.12" width="3.71" height="27.19"/><polygon class="cls-6" points="231.19 38.12 231.19 47.37 238.59 41.65 238.59 38.12 231.19 38.12"/><rect class="cls-3" x="216.18" y="38.12" width="7.43" height="27.19"/><rect class="cls-5" x="219.9" y="38.12" width="3.71" height="27.19"/><polygon class="cls-6" points="216.2 38.12 216.2 47.37 223.59 41.65 223.59 38.12 216.2 38.12"/><rect class="cls-7" x="242.39" y="66.61" width="27.6" height="3.78"/><rect class="cls-7" x="242.39" y="71.69" width="31.33" height="3.78"/><rect class="cls-5" x="213.65" y="34" width="2.09" height="3.07"/><rect class="cls-5" x="219.8" y="34" width="2.09" height="3.07"/><rect class="cls-5" x="225.95" y="34" width="2.09" height="3.07"/><rect class="cls-5" x="232.09" y="34" width="2.09" height="3.07"/><rect class="cls-5" x="238.24" y="34" width="2.09" height="3.07"/><rect class="cls-5" x="244.39" y="34" width="2.09" height="3.07"/><rect class="cls-5" x="250.54" y="34" width="2.09" height="3.07"/><rect class="cls-5" x="256.68" y="34" width="2.09" height="3.07"/><rect class="cls-5" x="262.83" y="34" width="2.09" height="3.07"/><rect class="cls-5" x="268.98" y="34" width="2.09" height="3.07"/><polygon class="cls-6" points="270.12 38.07 270.12 35.55 213.65 35.55 213.65 33.03 271.06 33.03 271.06 38.07 270.12 38.07"/><rect class="cls-4" x="213.71" y="37.2" width="57.36" height="0.93"/><polygon class="cls-7" points="242.36 15.49 242.36 32.94 275.12 32.94 275.12 27.86 242.39 15.48 242.36 15.49"/><circle class="cls-8" cx="242.39" cy="25.83" r="3.56"/><path class="cls-6" d="M242.39,22.27a3.56,3.56,0,0,0-2.77,5.79l5.62-4.34A3.56,3.56,0,0,0,242.39,22.27Z"/><path class="cls-9" d="M242.39,20.73l27,10.21h-54l27-10.21m0-2.14L209.65,31v2h65.47V31L242.39,18.59Z"/><text class="cls-10" transform="translate(218.71 85.09)">CUSTODIAN</text><polygon class="cls-11" points="80.59 76.22 78.38 62.21 55.98 54.48 33.59 62.21 31.38 76.22 80.59 76.22"/><polygon class="cls-12" points="49.85 56.62 53.76 60.95 56.02 64.35 59.32 61.35 62.19 56.58 62.76 49.31 49.1 49.79 49.79 56.69 49.85 56.62"/><path id="Shadow" class="cls-13" d="M49.85,51.81c2.31,3.21,2.59,3.49,3.63,4.76a2.42,2.42,0,0,0,2.64,1.13c.94-.09,1.41.1,3-2.12s3.06-4.33,3.06-4.33Z"/><path id="Ear_-_L" data-name="Ear - L" class="cls-14" d="M47.54,43.16c-1,.27-1,.29-1.36.54s-.32.42-.3.88.15,1.74.23,2.24A1.18,1.18,0,0,0,47,48a6,6,0,0,0,1.75.61c.72.14,0-5.57,0-5.57Z"/><path id="Ear_-_R" data-name="Ear - R" class="cls-15" d="M63.73,43.16c1,.27,1,.29,1.36.54s.32.42.3.88-.15,1.74-.23,2.24A1.18,1.18,0,0,1,64.3,48a6,6,0,0,1-1.75.61c-.72.14,0-5.57,0-5.57Z"/><path id="Face" class="cls-16" d="M63.28,35.93l-2.36-3-4-1.26,0-.45-1.12.22-1.13-.22-.05.45L48.2,35.18l-.7,7.57.94,6.74c.24,1.18-.07,1.12,1.43,2.49S52.3,54.1,52.3,54.1c1,.88,1.06.94,3.12.94A1,1,0,0,0,55.8,55a.94.94,0,0,0,.37.07c2.06,0,2.12-.06,3.12-.94,0,0,.94-.75,2.43-2.12s1.19-1.31,1.44-2.49l.93-6.74Z"/><polygon class="cls-17" points="55.77 42.66 57.12 47.76 55.77 47.76 55.77 42.66"/><polygon class="cls-18" points="55.77 48.28 57.12 47.76 54.43 47.76 55.77 48.28"/><polygon class="cls-19" points="55.77 50.38 56.36 50.06 58.88 50.61 55.77 50.61 55.77 50.38"/><polygon class="cls-19" points="55.77 50.38 55.18 50.06 52.66 50.61 55.77 50.61 55.77 50.38"/><polygon class="cls-19" points="52.66 50.61 53.59 51.07 55.77 51.25 55.77 50.61 52.66 50.61"/><polygon class="cls-19" points="58.88 50.61 57.95 51.07 55.77 51.25 55.77 50.61 58.88 50.61"/><g class="cls-20"><circle class="cls-21" cx="52.02" cy="42.5" r="2.03"/><circle class="cls-22" cx="52.02" cy="42.5" r="1.57"/><circle class="cls-23" cx="52.02" cy="42.5" r="0.79"/><circle class="cls-24" cx="52.02" cy="42.5" r="0.35"/><polygon class="cls-25" points="51.37 41.97 52.02 42.5 51.3 42.9 51.17 42.45 51.37 41.97"/><polygon class="cls-26" points="53.93 42.99 52.77 42.22 51.19 42.23 50.13 42.9 50.05 41.83 51.83 41.54 54.19 41.59 53.93 42.99"/></g><g class="cls-27"><circle class="cls-21" cx="59.52" cy="42.5" r="2.03"/><circle class="cls-22" cx="59.52" cy="42.5" r="1.57"/><circle class="cls-23" cx="59.52" cy="42.5" r="0.79"/><circle class="cls-24" cx="59.52" cy="42.5" r="0.35"/><polygon class="cls-25" points="58.87 43.04 59.52 42.5 58.81 42.1 58.67 42.55 58.87 43.04"/><polygon class="cls-26" points="57.61 42.99 58.77 42.22 60.35 42.23 61.41 42.9 61.48 41.83 59.71 41.54 57.35 41.59 57.61 42.99"/></g><path class="cls-28" d="M55.77,55h0a.94.94,0,0,0,.37.07c2.06,0,2.12-.06,3.12-.94,0,0,.94-.75,2.43-2.12s1.19-1.31,1.44-2.49l.93-6.74-.81-6.82-2.19-2.79H55.77Z"/><g id="Hair"><path class="cls-29" d="M47.51,42.77l-.28-7.06,3-5.09v.69L52,29.7v.56L53.21,29v1l.85-1.33.74.44.28-.76.75,1.19L55.6,28.1l2.56,2.09-.21-1,2.76,2.09v-.65l3.63,5.57-.29,6.3s-.86-.71-.83-1.43a20.89,20.89,0,0,0-.12-3.15,6.21,6.21,0,0,0-1.2-2.78c-1-1.47-1.19-1.93-2.06-1.82s-3,.37-3.48.51a2.86,2.86,0,0,1-1.51-.16c-.56-.14-2.46-.32-3-.37s-.66.16-1.17.74a17.33,17.33,0,0,0-2.28,3.19c-.16.6-.3,3.22-.36,4.1A2.71,2.71,0,0,1,47.51,42.77Z"/><path class="cls-30" d="M63.54,36.79,61,33.48l-2.32-3L58.85,32l-1.34-1.91.67,2.78-2-3.31V32l-1-2.69-.37,3.13-1-1.5-1.31,1.66V30.72l-4.39,6.11V40a25.85,25.85,0,0,1,.27-2.75A17.33,17.33,0,0,1,50.73,34c.51-.58.69-.78,1.17-.74s2.39.23,3,.37a2.86,2.86,0,0,0,1.51.16c.51-.14,2.6-.39,3.48-.51s1.1.35,2.06,1.82a6.21,6.21,0,0,1,1.2,2.78,18,18,0,0,1,.13,2.47Z"/><path class="cls-31" d="M61.15,33.36l-2.46-1.79v1.12l-.6-.71-.32.58-.69-.46-.95,1.28.1-.94-1.15,1.13-.14-.51-.47.53.38.07a2.86,2.86,0,0,0,1.51.16c.51-.14,2.6-.39,3.48-.51s1.1.35,2.06,1.82a6.21,6.21,0,0,1,1.2,2.78,20.89,20.89,0,0,1,.12,3.15c0,.72.83,1.43.83,1.43l.29-6.3-1.55-2.37-1.85-1.33Z"/></g><path id="Eyebrow_-_L" data-name="Eyebrow - L" class="cls-23" d="M57.19,40.91c.38-.29.82-.53,1-.67a1.27,1.27,0,0,1,.81-.09c.29,0,1.72.18,1.89.22s.19.08.33.23,1,1.21,1,1.21a11.1,11.1,0,0,1-1.45-.76,1.75,1.75,0,0,0-.56-.08c-.4,0-1.14,0-1.39,0a2.41,2.41,0,0,0-1,.27c-.27.18-.55.27-.64.12S57,41.06,57.19,40.91Z"/><path id="Eyebrow_-_R" data-name="Eyebrow - R" class="cls-23" d="M54.53,40.91c-.38-.29-.82-.53-1-.67a1.25,1.25,0,0,0-.8-.09c-.3,0-1.73.18-1.9.22s-.19.08-.33.23-1,1.21-1,1.21a11,11,0,0,0,1.46-.76A1.67,1.67,0,0,1,51.5,41c.39,0,1.13,0,1.38,0a2.36,2.36,0,0,1,1,.27c.27.18.55.27.64.12S54.73,41.06,54.53,40.91Z"/><polygon class="cls-32" points="60.64 76.22 62.19 56.58 59.32 61.35 56.02 64.35 53.76 60.95 49.85 56.62 49.79 56.69 51.74 76.22 60.64 76.22"/><polygon class="cls-8" points="53.48 76.22 58.65 76.22 56.96 67.36 58.94 63.64 55.69 61.47 53.05 63.83 55.08 67.45 53.48 76.22"/><polygon class="cls-33" points="50.23 56.99 56.07 61.85 51.69 66.51 50.23 56.99"/><polygon class="cls-22" points="49.85 56.62 55.69 61.47 51.31 66.14 49.85 56.62"/><polygon class="cls-33" points="62.45 57.64 56.26 61.47 60.88 66.09 62.45 57.64"/><polygon class="cls-22" points="62.19 56.62 55.69 61.47 60.31 66.09 62.19 56.62"/><polygon class="cls-34" points="43.88 76.22 51.73 76.22 49.87 56.54 41.88 63.09 46.81 65.39 40.82 70.39 43.88 76.22"/><polygon class="cls-34" points="68.09 76.22 71.14 70.39 65.16 65.39 70.08 63.09 62.1 56.54 60.24 76.22 68.09 76.22"/><text class="cls-10" transform="translate(33.77 85.09)">MERCHANT</text><line class="cls-35" x1="235.59" y1="96.8" x2="193.85" y2="138.54"/><circle class="cls-36" cx="236.23" cy="96.16" r="2.36"/><path class="cls-37" d="M198.84,139l-5.46-5.46c-.24-.25-.73,0-.76.37l-.66,6.51,6.5-.66C198.85,139.73,199.08,139.25,198.84,139Z"/><text class="cls-38" transform="translate(229.92 120.87)">Confirm<tspan x="5.13" y="6.02">Bu</tspan><tspan class="cls-39" x="13.56" y="6.02">r</tspan><tspan class="cls-40" x="16.42" y="6.02">n</tspan></text><line class="cls-35" x1="109.23" y1="135.78" x2="68.42" y2="94.97"/><circle class="cls-36" cx="70.02" cy="96.57" r="2.36"/><path class="cls-37" d="M105.87,137.88l5.46-5.46c.25-.24.73,0,.77.38l.65,6.5-6.5-.65C105.87,138.61,105.63,138.13,105.87,137.88Z"/><text class="cls-38" transform="translate(64.06 118.87)">Bu<tspan class="cls-39" x="8.42" y="0">r</tspan><tspan class="cls-40" x="11.29" y="0">n</tspan></text><text class="cls-10" transform="translate(120.19 167.56)">WRAPPED TOKEN<tspan x="13.02" y="6.02">CONTRACT</tspan></text><rect class="cls-41" x="133.19" y="103.38" width="42.25" height="55.04" rx="2.28"/><path class="cls-42" d="M157.46,142.86a9.1,9.1,0,0,1-1.78,3.47l.29.08-.11-1.09-.32.05a3.45,3.45,0,0,0,2.47,1.82,2.25,2.25,0,0,0,2-1.3c.86-1.6.72-4.73-1.38-5.32s-2.73,2-2.54,3.51a3.13,3.13,0,0,0,1.68,2.57c.67.3,1.51.32,1.87-.41.1-.2-.21-.38-.31-.18-.74,1.53-2.52-.66-2.73-1.25a4,4,0,0,1-.18-1.62,3.61,3.61,0,0,1,.39-1.57,1.6,1.6,0,0,1,2.73,0,4.12,4.12,0,0,1,.37,3.56,2.3,2.3,0,0,1-1.47,1.59c-1.24.3-2-.77-2.64-1.61-.07-.11-.29-.12-.32,0a2,2,0,0,0,.11,1.27c.05.11.21.19.3.08A9.74,9.74,0,0,0,157.8,143a.18.18,0,0,0-.34-.09Z"/><path class="cls-42" d="M160.32,145.7a5.13,5.13,0,0,0,2.1-.53l-.26-.2,0,.23a.19.19,0,0,0,.17.23c2.09-.09,5.6-1.21,6.5-3.35.71-1.68-1-3.83-2.73-2.73-1.2.75-1.64,2.42-1.95,3.7a16.88,16.88,0,0,0-.67,5.24c.23,2.31,2.1,1.29,2.64-.31.07-.21-.27-.31-.34-.09-.16.91-.79,1.18-1.89.82a6.29,6.29,0,0,1-.06-1.37,22.36,22.36,0,0,1,.33-2.59,11.17,11.17,0,0,1,1.32-4.24c1.25-1.83,4.14-.29,2.85,1.76a4.7,4.7,0,0,1-1.67,1.39,11.42,11.42,0,0,1-2.09,1,15.71,15.71,0,0,1-2,.42.18.18,0,0,0-.26-.2,4.43,4.43,0,0,1-1.92.48.18.18,0,0,0,0,.35Z"/><rect class="cls-42" x="138.71" y="114.28" width="13.71" height="1.3" rx="0.57"/><rect class="cls-42" x="138.71" y="116.97" width="13.71" height="1.3" rx="0.57"/><rect class="cls-42" x="138.71" y="122.37" width="31.24" height="1.3" rx="0.57"/><rect class="cls-42" x="138.71" y="125.06" width="31.24" height="1.3" rx="0.57"/><rect class="cls-42" x="138.71" y="127.76" width="31.24" height="1.3" rx="0.57"/><rect class="cls-42" x="138.71" y="130.45" width="31.24" height="1.3" rx="0.57"/><rect class="cls-42" x="138.71" y="133.15" width="13.71" height="1.3" rx="0.57"/><rect class="cls-42" x="138.71" y="135.85" width="13.71" height="1.3" rx="0.57"/><rect class="cls-42" x="156.23" y="133.15" width="13.71" height="1.3" rx="0.57"/><rect class="cls-42" x="156.23" y="135.85" width="13.71" height="1.3" rx="0.57"/><path class="cls-33" d="M144.58,142.82l.82.73a1,1,0,0,0,.73.23l1.09-.1a1,1,0,0,1,1,.74l.24,1.08a.92.92,0,0,0,.44.61l.95.56a1,1,0,0,1,.4,1.21l-.44,1a.92.92,0,0,0,0,.76l.44,1a1,1,0,0,1-.4,1.2l-.95.56a1,1,0,0,0-.44.62l-.24,1.08a1,1,0,0,1-1,.74l-1.09-.11a1,1,0,0,0-.73.24l-.82.73a1,1,0,0,1-1.27,0l-.82-.73a1,1,0,0,0-.73-.24l-1.09.11a1,1,0,0,1-1-.74L139.4,153a1,1,0,0,0-.44-.62l-1-.56a1,1,0,0,1-.4-1.2l.44-1a.92.92,0,0,0,0-.76l-.44-1a1,1,0,0,1,.4-1.21l1-.56a.92.92,0,0,0,.44-.61l.24-1.08a1,1,0,0,1,1-.74l1.51.14,1.13-1A1,1,0,0,1,144.58,142.82Z"/><path class="cls-43" d="M144,142.25l.82.73a1,1,0,0,0,.73.23l1.09-.1a1,1,0,0,1,1,.74l.24,1.08a.89.89,0,0,0,.44.61l.95.56a1,1,0,0,1,.4,1.21l-.45,1a1,1,0,0,0,0,.76l.45,1a1,1,0,0,1-.4,1.2l-.95.56a.93.93,0,0,0-.44.62l-.24,1.07a1,1,0,0,1-1,.75l-1.09-.11a1,1,0,0,0-.73.24l-.82.73a1,1,0,0,1-1.27,0l-.82-.73a1,1,0,0,0-.73-.24l-1.1.11a.94.94,0,0,1-1-.75l-.24-1.07a1,1,0,0,0-.45-.62l-.95-.56a1,1,0,0,1-.39-1.2l.44-1a.92.92,0,0,0,0-.76l-.44-1a1,1,0,0,1,.39-1.21l.95-.56a.9.9,0,0,0,.45-.61l.24-1.08a.94.94,0,0,1,1-.74l1.52.14,1.13-1A1,1,0,0,1,144,142.25Z"/><polyline class="cls-44" points="140.48 149.03 142.19 150.74 146.27 146.66"/><path class="cls-45" d="M149.71,150.09l-.45-1a1,1,0,0,1,0-.76l.45-1a1,1,0,0,0-.4-1.21l-.95-.56a.89.89,0,0,1-.44-.61l-.24-1.08a1,1,0,0,0-1-.74l-1.09.1a1,1,0,0,1-.73-.23l-.82-.73a1,1,0,0,0-1.27,0l-1.13,1-1.52-.14a.94.94,0,0,0-1,.74l-.07.33,8.8,8.8.12-.51a.93.93,0,0,1,.44-.62l.95-.56A1,1,0,0,0,149.71,150.09Z"/><path class="cls-45" d="M173.15,103.38H135.47a2.28,2.28,0,0,0-2.28,2.28v4.5l42.24,42.24V105.66A2.28,2.28,0,0,0,173.15,103.38Z"/><path class="cls-33" d="M175.43,120.41v-3.67h-1v-1.41l-.21-.21h-.93v-1.2l-4.09-4.09a5.38,5.38,0,0,0-1-6.22l-.25-.23h-7.1l-.26.23a5.38,5.38,0,0,0,6.22,8.62l8.18,8.18ZM163.77,106.8a1.37,1.37,0,0,1-1.93,0,1.36,1.36,0,0,1,1.93-1.93A1.37,1.37,0,0,1,163.77,106.8Z"/><path class="cls-46" d="M160,103a5.38,5.38,0,0,0,6.22,8.62l8.18,8.18h2.4v-2.39l-.2-.19h-1.33v-.72l-.36-.36h-1.06v-1.41l-.21-.21h-.93v-1.2l-4.09-4.09A5.38,5.38,0,0,0,160,103Zm3.19,3.19a1.37,1.37,0,0,1-1.93,0,1.36,1.36,0,0,1,1.93-1.93A1.37,1.37,0,0,1,163.2,106.23Z"/><polygon class="cls-33" points="175.45 119.84 176.39 119.84 167.93 111.37 167.46 111.84 175.45 119.84"/><path class="cls-45" d="M175.28,117.25v-.72l-.36-.36h-1.06v-1.41l-.21-.21h-.93v-1.2l-4.09-4.09a5.38,5.38,0,0,0-8.4-6.42l1.27,1.27a1.37,1.37,0,0,1,1.7.19,1.35,1.35,0,0,1,.18,1.69l13.43,13.43v-2l-.2-.19Z"/><line class="cls-35" x1="93.75" y1="58.77" x2="201.89" y2="58.77"/><circle class="cls-47" cx="147.82" cy="58.77" r="3.49"/><text class="cls-48" transform="translate(146.62 60.45)">2</text><circle class="cls-36" cx="203.48" cy="58.77" r="2.36"/><path class="cls-47" d="M96.37,62.63V54.91c0-.35-.51-.52-.8-.28l-5.06,4.14,5.06,4.13C95.86,63.15,96.37,63,96.37,62.63Z"/><text class="cls-49" transform="translate(121.08 51.37)">BTC <tspan class="cls-50" x="15.55" y="0">T</tspan><tspan class="cls-40" x="19.07" y="0">ransaction</tspan></text><circle class="cls-37" cx="89.05" cy="115.6" r="3.49"/><text class="cls-51" transform="translate(87.74 117.29)">1</text><circle class="cls-37" cx="216.78" cy="115.6" r="3.49"/><text class="cls-51" transform="translate(215.47 117.29)">3</text></svg>