<svg id="Layer_1" data-name="Layer 1" xmlns="http://www.w3.org/2000/svg" xmlns:xlink="http://www.w3.org/1999/xlink" viewBox="0 0 300 200"><defs><style>.cls-1,.cls-38,.cls-41{fill:none;}.cls-2{fill:#393332;}.cls-3{fill:#e2b89c;}.cls-10,.cls-15,.cls-17,.cls-19,.cls-4,.cls-8,.cls-9{fill:#231f20;}.cls-33,.cls-4{opacity:0.15;}.cls-5{fill:#efc9ac;}.cls-6{fill:#e0b594;}.cls-7{fill:#f2c8b1;}.cls-8{opacity:0.05;}.cls-31,.cls-9{opacity:0.1;}.cls-10{opacity:0.11;}.cls-11{clip-path:url(#clip-path);}.cls-12{fill:#e0c1aa;}.cls-13,.cls-16,.cls-30,.cls-39,.cls-45,.cls-51{fill:#fff;}.cls-14{fill:#5f3917;}.cls-16,.cls-32{opacity:0.25;}.cls-17,.cls-25,.cls-39{opacity:0.2;}.cls-18{clip-path:url(#clip-path-2);}.cls-19{opacity:0.07;}.cls-20{fill:#5f3a16;}.cls-21{fill:#593518;}.cls-22{fill:#4b2e15;}.cls-23{fill:#c6eafa;}.cls-24{fill:#2aace2;}.cls-26{fill:#494342;}.cls-27,.cls-44,.cls-45,.cls-48,.cls-50{font-size:5.02px;}.cls-27{fill:#8e9091;letter-spacing:0.4em;}.cls-27,.cls-44,.cls-45,.cls-48,.cls-50,.cls-51{font-family:HelveticaNeue-Medium, Helvetica Neue;font-weight:500;}.cls-28{fill:#6b6b6b;}.cls-29{fill:#c4c4c4;}.cls-30{opacity:0.75;}.cls-32,.cls-33{fill:#424142;}.cls-34{fill:#efefef;}.cls-35{fill:#f1f2f2;}.cls-36{fill:#b3b3b3;}.cls-37{fill:#f09242;}.cls-38{stroke:#fff;stroke-linejoin:round;stroke-width:0.95px;}.cls-38,.cls-41{stroke-linecap:round;}.cls-40{fill:#f0c362;}.cls-41{stroke:#d4d3d7;stroke-miterlimit:10;}.cls-42{fill:#d4d3d7;}.cls-43,.cls-44,.cls-48{fill:#fbb040;}.cls-44,.cls-50{letter-spacing:0.2em;}.cls-45,.cls-46,.cls-48{letter-spacing:0.2em;}.cls-47,.cls-50{fill:#f15a29;}.cls-49{letter-spacing:0.09em;}.cls-51{font-size:5px;letter-spacing:0.2em;}</style><clipPath id="clip-path"><path class="cls-1" d="M43.12,51.1,42,50.37H42l-1.51,0-.68.49a2,2,0,0,0,.89.63,6,6,0,0,0,1.41.05C42.16,51.54,43.12,51.1,43.12,51.1Z"/></clipPath><clipPath id="clip-path-2"><path class="cls-1" d="M47.12,51.1l1.09-.73h0l1.52,0,.68.49a2,2,0,0,1-.9.63,6,6,0,0,1-1.41.05C48.08,51.54,47.12,51.1,47.12,51.1Z"/></clipPath></defs><title>Wrapped Tokens v1</title><polygon class="cls-2" points="69.94 84.53 67.73 70.52 45.34 62.78 22.94 70.52 20.73 84.53 69.94 84.53"/><polygon class="cls-3" points="39.2 64.93 43.11 69.26 45.37 72.65 48.67 69.66 51.54 64.89 52.11 57.62 38.45 58.09 39.14 65 39.2 64.93"/><path id="Shadow" class="cls-4" d="M39.2,60.12c2.31,3.2,2.59,3.49,3.63,4.76A2.45,2.45,0,0,0,45.47,66c.94-.09,1.41.09,3-2.12s3.07-4.34,3.07-4.34Z"/><path id="Ear_-_L" data-name="Ear - L" class="cls-5" d="M36.89,51.47c-1,.27-1,.28-1.36.53s-.32.43-.3.89.15,1.74.23,2.24a1.18,1.18,0,0,0,.86,1.2,6,6,0,0,0,1.75.61c.72.14,0-5.57,0-5.57Z"/><path id="Ear_-_R" data-name="Ear - R" class="cls-6" d="M53.08,51.47c1,.27,1,.28,1.36.53s.32.43.3.89-.15,1.74-.23,2.24a1.18,1.18,0,0,1-.86,1.2,6,6,0,0,1-1.75.61c-.72.14,0-5.57,0-5.57Z"/><path id="Face" class="cls-7" d="M52.63,44.24l-2.36-3L46.33,40l-.06-.46-1.12.23L44,39.51,44,40l-6.42,3.52-.7,7.57.94,6.73c.25,1.19-.07,1.13,1.43,2.5s2.44,2.12,2.44,2.12c1,.87,1.06.94,3.11.94a1.22,1.22,0,0,0,.38-.07,1.21,1.21,0,0,0,.37.07c2.06,0,2.12-.07,3.12-.94,0,0,.94-.75,2.44-2.12s1.18-1.31,1.43-2.5l.94-6.73Z"/><polygon class="cls-8" points="45.13 50.97 46.47 56.06 45.13 56.06 45.13 50.97"/><polygon class="cls-9" points="45.12 56.59 46.47 56.06 43.78 56.06 45.12 56.59"/><polygon class="cls-10" points="45.13 58.69 45.71 58.37 48.23 58.91 45.13 58.91 45.13 58.69"/><polygon class="cls-10" points="45.12 58.69 44.54 58.37 42.02 58.91 45.12 58.91 45.12 58.69"/><polygon class="cls-10" points="42.02 58.91 42.95 59.38 45.12 59.55 45.12 58.91 42.02 58.91"/><polygon class="cls-10" points="48.23 58.91 47.3 59.38 45.13 59.55 45.13 58.91 48.23 58.91"/><g class="cls-11"><circle class="cls-12" cx="41.37" cy="50.81" r="2.03"/><circle class="cls-13" cx="41.37" cy="50.81" r="1.57"/><circle class="cls-14" cx="41.37" cy="50.81" r="0.79"/><circle class="cls-15" cx="41.37" cy="50.81" r="0.35"/><polygon class="cls-16" points="40.72 50.27 41.37 50.81 40.66 51.21 40.52 50.76 40.72 50.27"/><polygon class="cls-17" points="43.28 51.3 42.13 50.52 40.54 50.54 39.48 51.21 39.41 50.14 41.18 49.85 43.54 49.9 43.28 51.3"/></g><g class="cls-18"><circle class="cls-12" cx="48.87" cy="50.81" r="2.03"/><circle class="cls-13" cx="48.87" cy="50.81" r="1.57"/><circle class="cls-14" cx="48.87" cy="50.81" r="0.79"/><circle class="cls-15" cx="48.87" cy="50.81" r="0.35"/><polygon class="cls-16" points="48.23 51.34 48.87 50.81 48.16 50.41 48.02 50.86 48.23 51.34"/><polygon class="cls-17" points="46.96 51.3 48.12 50.52 49.7 50.54 50.77 51.21 50.84 50.14 49.07 49.85 46.7 49.9 46.96 51.3"/></g><path class="cls-19" d="M45.13,63.28h0a1.21,1.21,0,0,0,.37.07c2.06,0,2.12-.07,3.12-.94,0,0,.94-.75,2.44-2.12s1.18-1.31,1.43-2.5l.94-6.73-.82-6.82-2.18-2.79H45.13Z"/><g id="Hair"><path class="cls-20" d="M36.86,51.07,36.59,44l3-5.08v.69L41.3,38v.55l1.27-1.21v1l.85-1.33.73.43.28-.76.76,1.2L45,36.4l2.55,2.1-.21-1,2.76,2.1v-.65l3.63,5.57-.29,6.3s-.86-.72-.83-1.43a20.89,20.89,0,0,0-.12-3.15,6.28,6.28,0,0,0-1.19-2.78c-1-1.47-1.2-1.93-2.07-1.82s-3,.37-3.47.51A2.89,2.89,0,0,1,44.2,42c-.55-.14-2.46-.32-3-.37s-.66.16-1.17.74a17.39,17.39,0,0,0-2.27,3.19c-.17.6-.3,3.22-.37,4.09A2.66,2.66,0,0,1,36.86,51.07Z"/><path class="cls-21" d="M52.89,45.09l-2.51-3.31-2.32-3,.14,1.52-1.33-1.91.66,2.78-2-3.31v2.46l-1-2.69-.37,3.13-1-1.5-1.31,1.66V39l-4.39,6.12v3.14a22.91,22.91,0,0,1,.28-2.75,17.39,17.39,0,0,1,2.27-3.19c.51-.58.69-.79,1.17-.74s2.4.23,3,.37a2.89,2.89,0,0,0,1.52.16c.5-.14,2.59-.39,3.47-.51s1.1.35,2.07,1.82a6.28,6.28,0,0,1,1.19,2.78,16.51,16.51,0,0,1,.13,2.47Z"/><path class="cls-22" d="M50.5,41.67,48,39.87V41l-.6-.71-.32.57-.69-.46-.94,1.29.09-.94-1.15,1.13-.14-.51-.47.53a2.18,2.18,0,0,1,.38.07,2.89,2.89,0,0,0,1.52.16c.5-.14,2.59-.39,3.47-.51s1.1.35,2.07,1.82a6.28,6.28,0,0,1,1.19,2.78,20.89,20.89,0,0,1,.12,3.15c0,.71.83,1.43.83,1.43l.29-6.3-1.54-2.37-1.86-1.34Z"/></g><path id="Eyebrow_-_L" data-name="Eyebrow - L" class="cls-14" d="M46.54,49.21c.38-.28.82-.52,1-.66a1.24,1.24,0,0,1,.8-.09c.3,0,1.72.18,1.89.21s.19.08.34.24,1,1.21,1,1.21a11.1,11.1,0,0,1-1.45-.76,1.67,1.67,0,0,0-.56-.08c-.4,0-1.14-.06-1.39,0a2.41,2.41,0,0,0-1,.27c-.27.17-.55.26-.64.12S46.33,49.37,46.54,49.21Z"/><path id="Eyebrow_-_R" data-name="Eyebrow - R" class="cls-14" d="M43.88,49.21c-.38-.28-.82-.52-1-.66a1.24,1.24,0,0,0-.8-.09c-.3,0-1.72.18-1.9.21s-.19.08-.33.24-1,1.21-1,1.21a11.1,11.1,0,0,0,1.45-.76,1.67,1.67,0,0,1,.56-.08c.39,0,1.13-.06,1.39,0a2.36,2.36,0,0,1,.95.27c.27.17.55.26.64.12S44.09,49.37,43.88,49.21Z"/><polygon class="cls-23" points="49.99 84.53 51.54 64.89 48.67 69.66 45.37 72.65 43.11 69.26 39.2 64.93 39.14 65 41.09 84.53 49.99 84.53"/><polygon class="cls-24" points="42.83 84.53 48.01 84.53 46.32 75.67 48.3 71.95 45.04 69.78 42.41 72.14 44.43 75.76 42.83 84.53"/><polygon class="cls-25" points="39.58 65.3 45.42 70.16 41.04 74.82 39.58 65.3"/><polygon class="cls-13" points="39.2 64.93 45.04 69.78 40.66 74.44 39.2 64.93"/><polygon class="cls-25" points="51.8 65.95 45.61 69.78 50.23 74.4 51.8 65.95"/><polygon class="cls-13" points="51.55 64.93 45.04 69.78 49.66 74.4 51.55 64.93"/><polygon class="cls-26" points="33.23 84.53 41.08 84.53 39.22 64.84 31.24 71.39 36.16 73.7 30.18 78.69 33.23 84.53"/><polygon class="cls-26" points="57.44 84.53 60.5 78.69 54.51 73.7 59.44 71.39 51.45 64.84 49.6 84.53 57.44 84.53"/><text class="cls-27" transform="translate(23.12 93.4)">MERCHANT</text><rect class="cls-28" x="212.92" y="46.43" width="37.61" height="27.19"/><rect class="cls-29" x="203.06" y="73.62" width="57.36" height="5.09"/><rect class="cls-30" x="203.06" y="73.62" width="57.36" height="1.3"/><rect class="cls-29" x="199.01" y="78.7" width="65.47" height="5.09"/><rect class="cls-30" x="199.01" y="78.7" width="65.47" height="1.3"/><rect class="cls-29" x="203.06" y="41.3" width="57.36" height="5.09"/><polygon class="cls-29" points="264.47 41.25 199.01 41.25 199.01 36.16 231.74 23.79 264.47 36.16 264.47 41.25"/><polygon class="cls-29" points="199.01 39.27 199.01 41.25 264.47 41.25 264.47 39.27 231.74 26.9 199.01 39.27"/><rect class="cls-29" x="250.52" y="46.43" width="7.43" height="27.19"/><rect class="cls-31" x="254.23" y="46.43" width="3.71" height="27.19"/><polygon class="cls-32" points="250.53 46.43 250.53 55.67 257.93 49.96 257.93 46.43 250.53 46.43"/><rect class="cls-29" x="235.52" y="46.43" width="7.43" height="27.19"/><rect class="cls-31" x="239.24" y="46.43" width="3.71" height="27.19"/><polygon class="cls-32" points="235.54 46.43 235.54 55.67 242.93 49.96 242.93 46.43 235.54 46.43"/><rect class="cls-29" x="220.53" y="46.43" width="7.43" height="27.19"/><rect class="cls-31" x="224.24" y="46.43" width="3.71" height="27.19"/><polygon class="cls-32" points="220.55 46.43 220.55 55.67 227.94 49.96 227.94 46.43 220.55 46.43"/><rect class="cls-29" x="205.54" y="46.43" width="7.43" height="27.19"/><rect class="cls-31" x="209.25" y="46.43" width="3.71" height="27.19"/><polygon class="cls-32" points="205.55 46.43 205.55 55.67 212.95 49.96 212.95 46.43 205.55 46.43"/><rect class="cls-33" x="231.74" y="74.92" width="27.6" height="3.78"/><rect class="cls-33" x="231.74" y="80" width="31.33" height="3.78"/><rect class="cls-31" x="203.01" y="42.3" width="2.09" height="3.07"/><rect class="cls-31" x="209.15" y="42.3" width="2.09" height="3.07"/><rect class="cls-31" x="215.3" y="42.3" width="2.09" height="3.07"/><rect class="cls-31" x="221.45" y="42.3" width="2.09" height="3.07"/><rect class="cls-31" x="227.59" y="42.3" width="2.09" height="3.07"/><rect class="cls-31" x="233.74" y="42.3" width="2.09" height="3.07"/><rect class="cls-31" x="239.89" y="42.3" width="2.09" height="3.07"/><rect class="cls-31" x="246.04" y="42.3" width="2.09" height="3.07"/><rect class="cls-31" x="252.18" y="42.3" width="2.09" height="3.07"/><rect class="cls-31" x="258.33" y="42.3" width="2.09" height="3.07"/><polygon class="cls-32" points="259.47 46.38 259.47 43.85 203.01 43.85 203.01 41.34 260.42 41.34 260.42 46.38 259.47 46.38"/><rect class="cls-30" x="203.06" y="45.51" width="57.36" height="0.93"/><polygon class="cls-33" points="231.71 23.8 231.71 41.25 264.47 41.25 264.47 36.16 231.74 23.79 231.71 23.8"/><circle class="cls-24" cx="231.74" cy="34.14" r="3.56"/><path class="cls-32" d="M231.74,30.58a3.56,3.56,0,0,0-3.56,3.56,3.52,3.52,0,0,0,.8,2.22L234.59,32A3.53,3.53,0,0,0,231.74,30.58Z"/><path class="cls-34" d="M231.74,29l27,10.22h-54l27-10.22m0-2.13L199,39.27v2h65.46v-2L231.74,26.9Z"/><text class="cls-27" transform="translate(208.06 93.4)">CUSTODIAN</text><text class="cls-27" transform="translate(107.19 174.77)">WRAPPED TOKEN<tspan x="13.02" y="6.02">CONTRACT</tspan></text><rect class="cls-35" x="120.19" y="110.59" width="42.25" height="55.04" rx="2.28"/><path class="cls-36" d="M144.46,150.07a9.1,9.1,0,0,1-1.78,3.47l.29.08-.11-1.08-.32,0A3.45,3.45,0,0,0,145,154.4a2.26,2.26,0,0,0,2-1.29c.86-1.61.72-4.74-1.38-5.33s-2.73,1.95-2.54,3.52a3.11,3.11,0,0,0,1.68,2.56c.67.3,1.51.32,1.87-.41.1-.2-.21-.38-.31-.18-.74,1.53-2.52-.66-2.73-1.25a4,4,0,0,1-.18-1.62,3.53,3.53,0,0,1,.39-1.56,1.6,1.6,0,0,1,2.73,0,4.14,4.14,0,0,1,.37,3.57,2.34,2.34,0,0,1-1.47,1.59c-1.24.29-2-.78-2.64-1.62-.07-.11-.29-.12-.32,0a2,2,0,0,0,.11,1.27c.05.11.21.19.3.08a9.77,9.77,0,0,0,1.87-3.62.18.18,0,0,0-.34-.1Z"/><path class="cls-36" d="M147.32,152.91a5.12,5.12,0,0,0,2.1-.52l-.26-.2,0,.23a.18.18,0,0,0,.17.22c2.09-.08,5.6-1.21,6.5-3.34.71-1.68-1-3.83-2.73-2.74-1.2.75-1.64,2.43-1.95,3.7a16.92,16.92,0,0,0-.67,5.24c.23,2.31,2.1,1.3,2.64-.31.07-.21-.27-.3-.34-.09-.16.91-.79,1.19-1.89.82a6.29,6.29,0,0,1-.06-1.37,22.64,22.64,0,0,1,.33-2.59,11.17,11.17,0,0,1,1.32-4.24c1.25-1.83,4.14-.29,2.85,1.76a4.6,4.6,0,0,1-1.67,1.39,12.16,12.16,0,0,1-2.09,1,17.28,17.28,0,0,1-2,.41.18.18,0,0,0-.26-.2,4.3,4.3,0,0,1-1.92.48c-.23,0-.23.36,0,.35Z"/><rect class="cls-36" x="125.71" y="121.49" width="13.71" height="1.3" rx="0.57"/><rect class="cls-36" x="125.71" y="124.19" width="13.71" height="1.3" rx="0.57"/><rect class="cls-36" x="125.71" y="129.58" width="31.24" height="1.3" rx="0.57"/><rect class="cls-36" x="125.71" y="132.27" width="31.24" height="1.3" rx="0.57"/><rect class="cls-36" x="125.71" y="134.97" width="31.24" height="1.3" rx="0.57"/><rect class="cls-36" x="125.71" y="137.67" width="31.24" height="1.3" rx="0.57"/><rect class="cls-36" x="125.71" y="140.36" width="13.71" height="1.3" rx="0.57"/><rect class="cls-36" x="125.71" y="143.06" width="13.71" height="1.3" rx="0.57"/><rect class="cls-36" x="143.23" y="140.36" width="13.71" height="1.3" rx="0.57"/><rect class="cls-36" x="143.23" y="143.06" width="13.71" height="1.3" rx="0.57"/><path class="cls-25" d="M131.58,150l.82.73a1,1,0,0,0,.73.24l1.09-.11a1,1,0,0,1,1,.74l.24,1.08a1,1,0,0,0,.44.62l.95.56a1,1,0,0,1,.4,1.2l-.44,1a.92.92,0,0,0,0,.76l.44,1a1,1,0,0,1-.4,1.21l-.95.55a1,1,0,0,0-.44.62l-.24,1.08a1,1,0,0,1-1,.74l-1.09-.1a1,1,0,0,0-.73.23l-.82.73a1,1,0,0,1-1.27,0l-.82-.73a1,1,0,0,0-.73-.23l-1.09.1a1,1,0,0,1-1-.74l-.24-1.08a1,1,0,0,0-.44-.62l-.95-.55a1,1,0,0,1-.4-1.21l.44-1a.92.92,0,0,0,0-.76l-.44-1a1,1,0,0,1,.4-1.2l.95-.56a1,1,0,0,0,.44-.62l.24-1.08a1,1,0,0,1,1-.74l1.51.15,1.13-1A1,1,0,0,1,131.58,150Z"/><path class="cls-37" d="M131,149.46l.82.73a1,1,0,0,0,.73.24l1.09-.11a1,1,0,0,1,1,.74l.24,1.08a1,1,0,0,0,.44.62l.95.55a1,1,0,0,1,.4,1.21l-.45,1a1,1,0,0,0,0,.76l.45,1a1,1,0,0,1-.4,1.21l-.95.55a1,1,0,0,0-.44.62l-.24,1.08a1,1,0,0,1-1,.74l-1.09-.11a1,1,0,0,0-.73.24l-.82.73a1,1,0,0,1-1.27,0l-.82-.73a1,1,0,0,0-.73-.24l-1.1.11a.94.94,0,0,1-1-.74l-.24-1.08a1,1,0,0,0-.45-.62l-.95-.55a1,1,0,0,1-.39-1.21l.44-1a.92.92,0,0,0,0-.76l-.44-1a1,1,0,0,1,.39-1.21l.95-.55a1,1,0,0,0,.45-.62l.24-1.08a.94.94,0,0,1,1-.74l1.52.15,1.13-1A1,1,0,0,1,131,149.46Z"/><polyline class="cls-38" points="127.48 156.24 129.19 157.95 133.27 153.87"/><path class="cls-39" d="M136.71,157.3l-.45-1a1,1,0,0,1,0-.76l.45-1a1,1,0,0,0-.4-1.2l-.95-.56a1,1,0,0,1-.44-.62l-.24-1.08a1,1,0,0,0-1-.74l-1.09.11a1,1,0,0,1-.73-.24l-.82-.73a1,1,0,0,0-1.27,0l-1.13,1-1.52-.15a.94.94,0,0,0-1,.74l-.07.33,8.8,8.8.12-.51a1,1,0,0,1,.44-.62l.95-.55A1,1,0,0,0,136.71,157.3Z"/><path class="cls-39" d="M160.15,110.59H122.47a2.28,2.28,0,0,0-2.28,2.28v4.5l42.24,42.24V112.87A2.28,2.28,0,0,0,160.15,110.59Z"/><path class="cls-25" d="M162.43,127.62V124h-1v-1.41l-.21-.2h-.93v-1.2l-4.09-4.09a5.39,5.39,0,0,0-1-6.23l-.25-.23h-7.1l-.26.23a5.38,5.38,0,0,0,6.22,8.62l8.18,8.18ZM150.77,114a1.37,1.37,0,0,1-1.93,0,1.35,1.35,0,0,1,0-1.93,1.36,1.36,0,0,1,1.93,1.93Z"/><path class="cls-40" d="M147,110.25a5.38,5.38,0,0,0,6.22,8.62l8.18,8.18h2.4v-2.39l-.2-.2h-1.33v-.71l-.36-.37h-1.06V122l-.21-.2h-.93v-1.2l-4.09-4.09a5.39,5.39,0,0,0-8.62-6.23Zm3.19,3.19a1.37,1.37,0,0,1-1.93,0,1.35,1.35,0,0,1,0-1.93,1.36,1.36,0,1,1,1.93,1.93Z"/><polygon class="cls-25" points="162.45 127.05 163.39 127.05 154.93 118.58 154.46 119.06 162.45 127.05"/><path class="cls-39" d="M162.28,124.46v-.71l-.36-.37h-1.06V122l-.21-.2h-.93v-1.2l-4.09-4.09a5.38,5.38,0,0,0-8.4-6.43l1.27,1.27a1.38,1.38,0,0,1,1.7.19,1.35,1.35,0,0,1,.18,1.69l13.43,13.43v-2l-.2-.2Z"/><line class="cls-41" x1="79.34" y1="63.08" x2="188.36" y2="63.08"/><circle class="cls-42" cx="79.34" cy="63.08" r="2.36"/><path class="cls-43" d="M186.45,59.21v7.73c0,.34.51.51.81.27l5.05-4.13-5.05-4.14C187,58.7,186.45,58.87,186.45,59.21Z"/><text class="cls-44" transform="translate(122.99 55.67)">Bitcoin</text><line class="cls-41" x1="223.36" y1="102.69" x2="183.2" y2="142.84"/><circle class="cls-43" cx="204.13" cy="121.94" r="3.49"/><text class="cls-45" transform="translate(202.82 123.63)">3</text><circle class="cls-42" cx="224.24" cy="101.8" r="2.36"/><path class="cls-43" d="M188.19,143.32l-5.46-5.47c-.24-.24-.72,0-.76.38l-.66,6.5,6.51-.65C188.2,144,188.44,143.56,188.19,143.32Z"/><text class="cls-44" transform="translate(213.14 125.83)">Mint<tspan class="cls-46"><tspan x="-2.32" y="6.02">WBTC</tspan></tspan></text><line class="cls-41" x1="60.55" y1="102.06" x2="99.74" y2="141.24"/><circle class="cls-42" cx="99.74" cy="141.24" r="2.36"/><path class="cls-43" d="M63.89,99.93l-5.47,5.46c-.24.24-.72,0-.76-.38L57,98.51l6.5.66C63.89,99.2,64.13,99.69,63.89,99.93Z"/><line class="cls-41" x1="107.11" y1="125.59" x2="77.28" y2="95.76"/><circle class="cls-42" cx="77.28" cy="95.76" r="2.36"/><path class="cls-47" d="M102.59,126.53l5.46-5.46c.25-.24.73,0,.76.38l.66,6.5-6.5-.66C102.58,127.26,102.35,126.77,102.59,126.53Z"/><text class="cls-48" transform="translate(51.55 125.18)">WBTC<tspan class="cls-49"><tspan x="-1.75" y="6.02">T</tspan><tspan class="cls-46" x="1.67" y="6.02">okens</tspan></tspan></text><text class="cls-50" transform="translate(95.39 102)">Initiate<tspan x="4.71" y="6.02">Mint</tspan></text><circle class="cls-47" cx="92.28" cy="110.59" r="3.49"/><text class="cls-51" transform="translate(91.08 112.28)">1</text><circle class="cls-43" cx="134.64" cy="62.91" r="3.49"/><text class="cls-45" transform="translate(133.15 64.34)">2</text><circle class="cls-43" cx="79.47" cy="120.97" r="3.49"/><text class="cls-45" transform="translate(77.92 122.66)">4</text></svg>