<svg xmlns="http://www.w3.org/2000/svg" xmlns:xlink="http://www.w3.org/1999/xlink" viewBox="0 0 300 94.5"><defs><style>.cls-1,.cls-44{fill:#fbb040;}.cls-2,.cls-39{fill:none;}.cls-3{isolation:isolate;}.cls-4{clip-path:url(#clip-path);}.cls-5{fill:#15b0bf;}.cls-6{fill:#138491;}.cls-7{fill:#f7d4b8;}.cls-16,.cls-8{opacity:0.15;}.cls-10,.cls-8{mix-blend-mode:multiply;}.cls-9{fill:#f2efdc;}.cls-10,.cls-21{opacity:0.1;}.cls-11{fill:#fbbf0c;}.cls-12{fill:#0e303f;}.cls-13,.cls-43,.cls-44{font-size:5.02px;}.cls-13{fill:#8e9091;letter-spacing:0.4em;}.cls-13,.cls-41,.cls-43,.cls-44{font-family:HelveticaNeue-Medium, Helvetica Neue;font-weight:500;}.cls-14{fill:#393332;}.cls-15{fill:#e2b89c;}.cls-16,.cls-20,.cls-21,.cls-22,.cls-27,.cls-29,.cls-31{fill:#231f20;}.cls-17{fill:#efc9ac;}.cls-18{fill:#e0b594;}.cls-19{fill:#f2c8b1;}.cls-20{opacity:0.05;}.cls-22{opacity:0.11;}.cls-23{clip-path:url(#clip-path-2);}.cls-24{fill:#e0c1aa;}.cls-25,.cls-28,.cls-41{fill:#fff;}.cls-26{fill:#5f3917;}.cls-28{opacity:0.25;}.cls-29,.cls-37{opacity:0.2;}.cls-30{clip-path:url(#clip-path-3);}.cls-31{opacity:0.07;}.cls-32{fill:#5f3a16;}.cls-33{fill:#593518;}.cls-34{fill:#4b2e15;}.cls-35{fill:#c6eafa;}.cls-36{fill:#2aace2;}.cls-38{fill:#494342;}.cls-39{stroke:#d4d3d7;stroke-linecap:round;stroke-miterlimit:10;}.cls-40{fill:#d4d3d7;}.cls-41{font-size:5px;letter-spacing:0.2em;}.cls-42,.cls-43{fill:#f15a29;}.cls-43,.cls-44{letter-spacing:0.2em;}.cls-45{letter-spacing:0.09em;}.cls-46{letter-spacing:0.2em;}</style><clipPath id="clip-path"><path class="cls-1" d="M79,42.86a23,23,0,1,1-23-23A23,23,0,0,1,79,42.86Z"/></clipPath><clipPath id="clip-path-2"><path class="cls-2" d="M240.19,33.36l-1.09-.73h0l-1.52,0-.67.49a2,2,0,0,0,.89.63,6,6,0,0,0,1.41,0C239.23,33.8,240.19,33.36,240.19,33.36Z"/></clipPath><clipPath id="clip-path-3"><path class="cls-2" d="M244.19,33.36l1.08-.73h.06l1.51,0,.68.49a2,2,0,0,1-.89.63,6,6,0,0,1-1.41,0C245.15,33.8,244.19,33.36,244.19,33.36Z"/></clipPath></defs><title>Wrapped Tokens v1</title><g class="cls-3"><g id="Layer_1" data-name="Layer 1"><path class="cls-1" d="M79,42.86a23,23,0,1,1-23-23A23,23,0,0,1,79,42.86Z"/><g class="cls-4"><path class="cls-5" d="M70.89,55a1.89,1.89,0,0,1,1.18,1.75V71.08H41.49V56.71A1.89,1.89,0,0,1,42.67,55L52.79,50.9l.19-.07h7.6l.19.07Z"/><path class="cls-6" d="M70.89,55a1.89,1.89,0,0,1,1.18,1.75V71.08H70.29L59.82,58.3,53.7,50.83l-.91-1.11V47.27h8V50.9Z"/><path class="cls-7" d="M60.77,47.27v8.48a3.85,3.85,0,0,1-3.87,3.87h-.23a3.88,3.88,0,0,1-3.88-3.87V47.27Z"/><path class="cls-8" d="M61.31,45.48V55.1A4.39,4.39,0,0,1,60.22,58l-8-9.73V45.48Z"/><polygon class="cls-9" points="55.6 48.45 55.98 47.8 57.28 47.8 57.65 48.45 58.47 48.45 58.16 46.93 58.16 46.91 58.16 46.91 58.16 46.91 58.15 46.91 55.1 46.91 55.1 46.91 54.79 48.45 55.6 48.45"/><path class="cls-7" d="M65.86,40.44c0,1.25-.54,2.27-1.2,2.27a.71.71,0,0,1-.28-.06c-1,4.71-4.14,8.16-7.88,8.16h-.18c-3.65-.1-6.7-3.49-7.69-8.1h-.08c-.66,0-1.19-1-1.19-2.27s.42-2,1-2.23c.46-5.57,3.84-9.92,8-10h.18c4.21,0,7.68,4.37,8.16,10h0C65.32,38.17,65.86,39.19,65.86,40.44Z"/><path class="cls-10" d="M65.86,40.44c0,1.25-.54,2.27-1.2,2.27a.71.71,0,0,1-.28-.06c-1,4.71-4.14,8.16-7.88,8.16h-.18V28.17h.18c4.21,0,7.68,4.37,8.16,10h0C65.32,38.17,65.86,39.19,65.86,40.44Z"/><path class="cls-11" d="M50,38.22Z"/><path class="cls-12" d="M65.82,31.51c-1.16-3.16-3.44-2.63-4.12-2.39a.19.19,0,0,1-.24-.14,5.19,5.19,0,0,0-3.27-4c-2.9-.93-5.21,1.11-6.5,2s-3.7.82-4.49,3.75c-.68,2.5.28,5.76,1.18,7.59a.33.33,0,0,0,.3.17h.61a.31.31,0,0,1,.29.2l.86,2.38s.08,0,.08,0l.1-1.85c0-.67.06-1.26.14-2a1.09,1.09,0,0,0,0-.4c-.47-1.36-1.77-4.73.43-5.78,2-1,2.94.67,4.27,1.32a.68.68,0,0,0,.4,0l.48-.13a1.85,1.85,0,0,0,.37-.19,4.88,4.88,0,0,1,.46-.32l.87-.53c.21-.18.41-.37.61-.56a.56.56,0,0,1,.51-.17.39.39,0,0,0,.35-.07.79.79,0,0,1,.73-.26c1.18.2,3.82,3,2.65,8.25,0,0,.07,1.46.09,2a.07.07,0,0,0,.13,0l1.51-2.14A7.29,7.29,0,0,0,65.82,31.51Z"/><path class="cls-12" d="M60.9,30.05a5.9,5.9,0,0,0-.19-.67c-.49-1.38-5-2.84-8.82-.34-4.41,2.87-2.22,8.73-2.22,8.73l1,.68A5.81,5.81,0,0,1,52,34.36a4,4,0,0,0,2.26,2.83.17.17,0,0,0,.12,0,.14.14,0,0,0,.08-.1,9,9,0,0,1,4.86-5.51,2.16,2.16,0,0,1,.18,2,.12.12,0,0,0,0,.14s2.86.23,3.29,4.72a6.71,6.71,0,0,0,1.46-4.06C64.28,32.53,61.88,30.72,60.9,30.05Z"/><path class="cls-12" d="M58,51.23a.55.55,0,0,1-.58.51H55.65a.55.55,0,0,1-.59-.51V49.28a.55.55,0,0,1,.59-.51h1.77a.54.54,0,0,1,.58.51Z"/><path class="cls-12" d="M59.54,52.18c.59,0,.46-.06,3.55-6.11H61.26L60,47.68a2.86,2.86,0,0,0-2.13-1.09H55.42a2.88,2.88,0,0,0-2.14,1.09L52,46.07H50.16c3.1,6,3,6.11,3.56,6.11Zm-1.7-4.47a.91.91,0,0,1,.83.47l.25.49-1.54,2.39H55.87l-1.54-2.39.26-.49a.91.91,0,0,1,.83-.47Z"/></g><text class="cls-13" transform="translate(33.72 75.71)">CUSTOMER</text><polygon class="cls-14" points="267.01 66.79 264.8 52.78 242.4 45.05 220 52.78 217.79 66.79 267.01 66.79"/><polygon class="cls-15" points="236.27 47.19 240.18 51.52 242.44 54.91 245.74 51.92 248.6 47.15 249.18 39.88 235.51 40.35 236.2 47.26 236.27 47.19"/><path id="Shadow" class="cls-16" d="M236.27,42.38c2.31,3.2,2.59,3.49,3.63,4.76a2.43,2.43,0,0,0,2.63,1.13c.95-.09,1.42.09,3-2.12s3.06-4.34,3.06-4.34Z"/><path id="Ear_-_L" data-name="Ear - L" class="cls-17" d="M234,33.73c-1,.27-1,.28-1.36.53s-.33.43-.3.89.15,1.74.22,2.24a1.19,1.19,0,0,0,.87,1.2,6.06,6.06,0,0,0,1.74.61c.73.14,0-5.57,0-5.57Z"/><path id="Ear_-_R" data-name="Ear - R" class="cls-18" d="M250.14,33.73c1,.27,1,.28,1.37.53s.32.43.3.89-.15,1.74-.23,2.24a1.18,1.18,0,0,1-.86,1.2,6.11,6.11,0,0,1-1.75.61c-.73.14,0-5.57,0-5.57Z"/><path id="Face" class="cls-19" d="M249.7,26.5l-2.36-3-4-1.26,0-.46-1.12.23-1.13-.23-.05.46-6.42,3.52-.7,7.57.93,6.73c.25,1.19-.06,1.13,1.44,2.5s2.43,2.12,2.43,2.12c1,.87,1.06.94,3.12.94a1.27,1.27,0,0,0,.38-.07,1.16,1.16,0,0,0,.37.07c2.06,0,2.12-.07,3.12-.94,0,0,.93-.75,2.43-2.12s1.19-1.31,1.44-2.5l.93-6.73Z"/><polygon class="cls-20" points="242.19 33.23 243.54 38.32 242.19 38.32 242.19 33.23"/><polygon class="cls-21" points="242.19 38.85 243.54 38.32 240.85 38.32 242.19 38.85"/><polygon class="cls-22" points="242.19 40.95 242.78 40.63 245.3 41.17 242.19 41.17 242.19 40.95"/><polygon class="cls-22" points="242.19 40.95 241.6 40.63 239.08 41.17 242.19 41.17 242.19 40.95"/><polygon class="cls-22" points="239.08 41.17 240.01 41.64 242.19 41.81 242.19 41.17 239.08 41.17"/><polygon class="cls-22" points="245.3 41.17 244.37 41.64 242.19 41.81 242.19 41.17 245.3 41.17"/><g class="cls-23"><circle class="cls-24" cx="238.44" cy="33.07" r="2.03"/><circle class="cls-25" cx="238.44" cy="33.07" r="1.57"/><circle class="cls-26" cx="238.44" cy="33.07" r="0.79"/><circle class="cls-27" cx="238.44" cy="33.07" r="0.35"/><polygon class="cls-28" points="237.79 32.53 238.44 33.07 237.72 33.47 237.59 33.02 237.79 32.53"/><polygon class="cls-29" points="240.35 33.56 239.19 32.78 237.61 32.8 236.54 33.47 236.47 32.4 238.25 32.11 240.61 32.16 240.35 33.56"/></g><g class="cls-30"><circle class="cls-24" cx="245.94" cy="33.07" r="2.03"/><circle class="cls-25" cx="245.94" cy="33.07" r="1.57"/><circle class="cls-26" cx="245.94" cy="33.07" r="0.79"/><circle class="cls-27" cx="245.94" cy="33.07" r="0.35"/><polygon class="cls-28" points="245.29 33.6 245.94 33.07 245.22 32.66 245.09 33.12 245.29 33.6"/><polygon class="cls-29" points="244.03 33.56 245.18 32.78 246.77 32.8 247.83 33.47 247.9 32.4 246.13 32.11 243.77 32.16 244.03 33.56"/></g><path class="cls-31" d="M242.19,45.54h0a1.27,1.27,0,0,0,.38.07c2.06,0,2.12-.07,3.12-.94,0,0,.93-.75,2.43-2.12s1.19-1.31,1.44-2.5l.93-6.73-.81-6.82-2.19-2.79h-5.32Z"/><g id="Hair"><path class="cls-32" d="M233.93,33.33l-.28-7.06,3-5.08v.69l1.68-1.61v.55l1.26-1.21v1l.85-1.33.74.43.28-.76.75,1.2L242,18.66l2.55,2.1-.2-1,2.76,2.1v-.65l3.63,5.57-.29,6.3s-.86-.72-.84-1.43a19.64,19.64,0,0,0-.11-3.15,6.21,6.21,0,0,0-1.2-2.78c-1-1.47-1.19-1.93-2.07-1.82s-3,.37-3.47.51a2.91,2.91,0,0,1-1.52-.16c-.55-.14-2.46-.32-2.94-.37s-.67.16-1.17.74a17,17,0,0,0-2.28,3.19c-.16.6-.3,3.22-.37,4.09A2.7,2.7,0,0,1,233.93,33.33Z"/><path class="cls-33" d="M250,27.35,247.45,24l-2.32-3,.13,1.52-1.33-1.91.67,2.78-2-3.31v2.46l-1-2.69L241.31,23l-1-1.5L239,23.15V21.28L234.6,27.4v3.14a25.85,25.85,0,0,1,.27-2.75,17,17,0,0,1,2.28-3.19c.5-.58.69-.79,1.17-.74s2.39.23,2.94.37a2.91,2.91,0,0,0,1.52.16c.51-.14,2.6-.39,3.47-.51s1.11.35,2.07,1.82a6.21,6.21,0,0,1,1.2,2.78,16.64,16.64,0,0,1,.12,2.47Z"/><path class="cls-34" d="M247.56,23.93l-2.46-1.8v1.13l-.59-.71-.33.57-.69-.46L242.55,24l.09-.94-1.14,1.13-.14-.51-.47.53a2.23,2.23,0,0,1,.37.07,2.91,2.91,0,0,0,1.52.16c.51-.14,2.6-.39,3.47-.51s1.11.35,2.07,1.82a6.21,6.21,0,0,1,1.2,2.78,19.64,19.64,0,0,1,.11,3.15c0,.71.84,1.43.84,1.43l.29-6.3-1.55-2.37-1.85-1.34Z"/></g><path id="Eyebrow_-_L" data-name="Eyebrow - L" class="cls-26" d="M243.6,31.47c.39-.28.83-.52,1-.66a1.25,1.25,0,0,1,.8-.09c.3,0,1.73.18,1.9.21s.19.08.33.24,1,1.21,1,1.21a12.15,12.15,0,0,1-1.46-.76,1.63,1.63,0,0,0-.55-.08c-.4,0-1.14-.06-1.39,0a2.36,2.36,0,0,0-1,.27c-.27.17-.55.26-.64.12S243.4,31.63,243.6,31.47Z"/><path id="Eyebrow_-_R" data-name="Eyebrow - R" class="cls-26" d="M240.94,31.47c-.38-.28-.82-.52-1-.66a1.27,1.27,0,0,0-.81-.09c-.29,0-1.72.18-1.89.21s-.19.08-.33.24-1,1.21-1,1.21a11.1,11.1,0,0,0,1.45-.76,1.75,1.75,0,0,1,.56-.08c.4,0,1.14-.06,1.39,0a2.36,2.36,0,0,1,1,.27c.27.17.55.26.64.12S241.15,31.63,240.94,31.47Z"/><polygon class="cls-35" points="247.05 66.79 248.6 47.15 245.74 51.92 242.44 54.91 240.18 51.52 236.27 47.19 236.2 47.26 238.16 66.79 247.05 66.79"/><polygon class="cls-36" points="239.9 66.79 245.07 66.79 243.38 57.93 245.36 54.21 242.11 52.04 239.47 54.4 241.5 58.02 239.9 66.79"/><polygon class="cls-37" points="236.65 47.56 242.49 52.42 238.1 57.08 236.65 47.56"/><polygon class="cls-25" points="236.27 47.19 242.11 52.04 237.73 56.7 236.27 47.19"/><polygon class="cls-37" points="248.86 48.21 242.68 52.04 247.29 56.66 248.86 48.21"/><polygon class="cls-25" points="248.61 47.19 242.11 52.04 246.73 56.66 248.61 47.19"/><polygon class="cls-38" points="230.29 66.79 238.14 66.79 236.29 47.1 228.3 53.66 233.23 55.96 227.24 60.95 230.29 66.79"/><polygon class="cls-38" points="254.51 66.79 257.56 60.95 251.57 55.96 256.5 53.66 248.52 47.1 246.66 66.79 254.51 66.79"/><text class="cls-13" transform="translate(220.19 75.66)">MERCHANT</text><line class="cls-39" x1="93.67" y1="55.97" x2="202.69" y2="55.97"/><circle class="cls-40" cx="203.48" cy="55.97" r="2.36"/><path class="cls-1" d="M96.37,59.83V52.11c0-.34-.51-.52-.8-.27L90.51,56l5.06,4.14C95.86,60.35,96.37,60.18,96.37,59.83Z"/><circle class="cls-1" cx="147.78" cy="55.92" r="3.49"/><text class="cls-41" transform="translate(146.39 57.6)">2</text><line class="cls-39" x1="92.87" y1="37.39" x2="201.89" y2="37.39"/><circle class="cls-40" cx="92.87" cy="37.39" r="2.36"/><path class="cls-42" d="M200,33.53v7.72c0,.35.51.52.81.28l5.06-4.14-5.06-4.13C200.49,33,200,33.18,200,33.53Z"/><circle class="cls-42" cx="147.78" cy="37.39" r="3.49"/><text class="cls-41" transform="translate(146.57 39.08)">1</text><text class="cls-43" transform="translate(115.68 29.99)">KYC, AML &amp; Bitcoin</text><text class="cls-44" transform="translate(125.94 66.22)">WBTC <tspan class="cls-45" x="21.29" y="0">T</tspan><tspan class="cls-46" x="24.71" y="0">okens</tspan></text></g></g></svg>